# xmcd CD database file
#
# Track frame offsets:
#	150
#	13442
#	26945
#	40447
#	57695
#	70125
#	85212
#	100282
#	111700
#	123545
#	139372
#	153765
#	169072
#	184222
#
# Disc length: 2609 seconds
#
# Revision: 0
# Processed by: cddbd v1.4PL0 Copyright (c) Steve Scherf et al.
# Submitted via: CDex 1.40Beta8
#
DISCID=d80a2f0e
DTITLE=Kenny Rodgers - Forever Gold
DYEAR=2001
DGENRE=Country
TTITLE0=Ruby Don't Take Your Love To Town
TTITLE1=Shine On Ruby Mountain
TTITLE2=But You Know That I Love You
TTITLE3=Something's Burning
TTITLE4=Reuben James
TTITLE5=Tell It All Brother
TTITLE6=Heed The Call
TTITLE7=If Wishes Were Horses
TTITLE8=Elvira
TTITLE9=Tulsa Turnaround
TTITLE10=It's Raining In My Mind
TTITLE11=For The Good Times
TTITLE12=Conditions
TTITLE13=Me And Bobby McGee
EXTD=YEAR: 2001 ID3G: 2
EXTT0=
EXTT1=
EXTT2=
EXTT3=
EXTT4=
EXTT5=
EXTT6=
EXTT7=
EXTT8=
EXTT9=
EXTT10=
EXTT11=
EXTT12=
EXTT13=
PLAYORDER=
